<svg xmlns="http://www.w3.org/2000/svg" viewBox="0 0 800 1200" width="800" height="1200" style="background:#000000">
  <defs>
    <filter id="glowGreen">
      <feGaussianBlur stdDeviation="4" result="blur"/>
      <feMerge><feMergeNode in="blur"/><feMergeNode in="SourceGraphic"/></feMerge>
    </filter>
  </defs>
  <rect width="800" height="1200" fill="#000000" />
  
  <!-- Mini Logo Header -->
  <g transform="translate(160, 40) scale(0.65)">
    <path d="M 60,30 Q 30,120 10,240 Q 40,290 80,330 Q 45,260 40,190 Q 75,100 60,30 Z" fill="#00FF4C" />
    <path d="M 110,60 Q 70,160 50,320 Q 90,360 140,400 Q 90,330 85,240 Q 120,150 110,60 Z" fill="#00FF4C" />
    <polygon points="180,240 280,240 250,340 210,400 180,310" fill="#00FF4C" />
    <g transform="translate(300, 160)">
      <text x="0" y="0" font-family="'Arial Black', sans-serif" font-size="70" font-weight="bold" fill="#00FF4C">VENEZ</text>
      <text x="20" y="60" font-family="'Times New Roman', serif" font-size="34" font-weight="bold" fill="#FFFFFF" letter-spacing="6">PEST CONTROL</text>
    </g>
  </g>

  <!-- Items list -->
  <!-- 1. Bimonthly -->
  <g transform="translate(60, 320)">
    <polygon points="10,40 30,65 75,15 65,5 30,45 20,30" fill="#00FF4C" filter="url(#glowGreen)" />
    <text x="90" y="30" font-family="'Arial Black', sans-serif" font-size="32" font-weight="bold" fill="#FFFFFF">BIMONTHLY</text>
    <text x="90" y="70" font-family="'Arial Black', sans-serif" font-size="32" font-weight="bold" fill="#FFFFFF">PEST CONTROL</text>
    <text x="510" y="65" font-family="'Arial Black', sans-serif" font-size="64" font-weight="bold" fill="#00FF4C" filter="url(#glowGreen)">$120</text>
    <line x1="10" y1="105" x2="680" y2="105" stroke="#1F3D2B" stroke-width="2" />
  </g>

  <!-- 2. Quarterly -->
  <g transform="translate(60, 470)">
    <polygon points="10,40 30,65 75,15 65,5 30,45 20,30" fill="#00FF4C" filter="url(#glowGreen)" />
    <text x="90" y="30" font-family="'Arial Black', sans-serif" font-size="32" font-weight="bold" fill="#FFFFFF">QUARTERLY</text>
    <text x="90" y="70" font-family="'Arial Black', sans-serif" font-size="32" font-weight="bold" fill="#FFFFFF">PEST CONTROL</text>
    <text x="510" y="65" font-family="'Arial Black', sans-serif" font-size="64" font-weight="bold" fill="#00FF4C" filter="url(#glowGreen)">$190</text>
    <line x1="10" y1="105" x2="680" y2="105" stroke="#1F3D2B" stroke-width="2" />
  </g>

  <!-- 3. Annual -->
  <g transform="translate(60, 620)">
    <polygon points="10,40 30,65 75,15 65,5 30,45 20,30" fill="#00FF4C" filter="url(#glowGreen)" />
    <text x="90" y="30" font-family="'Arial Black', sans-serif" font-size="32" font-weight="bold" fill="#FFFFFF">ANNUAL</text>
    <text x="90" y="70" font-family="'Arial Black', sans-serif" font-size="32" font-weight="bold" fill="#FFFFFF">PEST CONTROL</text>
    <text x="490" y="65" font-family="'Arial Black', sans-serif" font-size="64" font-weight="bold" fill="#00FF4C" filter="url(#glowGreen)">$400</text>
    <line x1="10" y1="105" x2="680" y2="105" stroke="#1F3D2B" stroke-width="2" />
  </g>

  <!-- 4. Rodent -->
  <g transform="translate(60, 770)">
    <polygon points="10,40 30,65 75,15 65,5 30,45 20,30" fill="#00FF4C" filter="url(#glowGreen)" />
    <text x="90" y="30" font-family="'Arial Black', sans-serif" font-size="32" font-weight="bold" fill="#FFFFFF">RODENT</text>
    <text x="90" y="70" font-family="'Arial Black', sans-serif" font-size="32" font-weight="bold" fill="#FFFFFF">PREVENTION</text>
    <text x="490" y="65" font-family="'Arial Black', sans-serif" font-size="64" font-weight="bold" fill="#00FF4C" filter="url(#glowGreen)">$400</text>
    <line x1="10" y1="105" x2="680" y2="105" stroke="#1F3D2B" stroke-width="2" />
  </g>

  <!-- 5. Termites -->
  <g transform="translate(60, 930)">
    <polygon points="10,40 30,65 75,15 65,5 30,45 20,30" fill="#00FF4C" filter="url(#glowGreen)" />
    <text x="90" y="45" font-family="'Arial Black', sans-serif" font-size="36" font-weight="bold" fill="#FFFFFF">TERMITES</text>
    <text x="440" y="55" font-family="'Arial Black', sans-serif" font-size="64" font-weight="bold" fill="#00FF4C" filter="url(#glowGreen)">$1000+</text>
  </g>
</svg>